<svg xmlns="http://www.w3.org/2000/svg" width="200" height="200" viewBox="0 0 200 200">
<g>
<path d="M 98.18 69.64 C97.10,71.30 92.75,71.83 89.75,70.67 C86.09,69.26 85.95,65.35 89.53,63.99 C90.91,63.46 92.31,62.35 92.63,61.52 C93.50,59.27 94.90,59.68 94.29,62.00 C93.47,65.12 95.50,64.35 98.10,60.55 C103.41,52.81 115.71,50.02 124.44,54.58 C130.18,57.57 130.01,59.25 124.21,56.80 C120.74,55.34 118.26,54.92 115.83,55.37 C111.10,56.26 104.04,61.01 103.35,63.76 C103.03,65.04 101.74,66.28 100.40,66.62 C99.09,66.94 98.21,67.52 98.44,67.90 C98.68,68.28 98.56,69.07 98.18,69.64 ZM 131.86 83.94 C129.04,86.73 126.56,89.00 126.36,89.00 C124.98,89.00 126.55,86.21 129.50,83.44 C131.43,81.62 133.00,79.84 133.00,79.47 C133.00,79.11 133.86,77.72 134.91,76.39 C135.96,75.05 136.67,73.18 136.49,72.23 C136.30,71.28 136.12,69.94 136.08,69.25 C136.03,68.56 135.32,68.00 134.50,68.00 C133.55,68.00 133.00,67.04 133.00,65.38 C133.00,63.16 133.23,62.95 134.50,64.00 C135.32,64.68 136.00,65.86 136.00,66.62 C136.00,67.38 136.44,68.00 136.98,68.00 C137.52,68.00 138.26,69.24 138.62,70.75 C138.98,72.26 139.69,74.02 140.19,74.67 C140.81,75.45 140.44,76.04 139.05,76.48 C137.92,76.84 137.00,77.53 137.00,78.01 C137.00,78.49 134.69,81.16 131.86,83.94 ZM 149.06 119.00 C148.06,119.00 145.61,119.68 143.62,120.51 C141.50,121.40 140.00,121.61 140.00,121.01 C140.00,120.46 140.57,120.00 141.27,120.00 C141.97,120.00 144.19,118.88 146.21,117.50 L 146.50 117.31 C148.95,115.64 149.92,114.98 150.34,115.23 C150.62,115.41 150.65,116.01 150.73,117.00 C150.82,118.32 150.26,119.00 149.06,119.00 ZM 90.56 68.22 C91.29,68.96 94.88,68.00 95.57,66.88 C95.87,66.40 94.74,66.00 93.06,66.00 C90.22,66.00 89.22,66.89 90.56,68.22 Z" fill="rgb(22,27,56)"/>
<path d="M 98.18 69.64 C98.56,69.07 98.68,68.28 98.44,67.90 C98.21,67.52 99.09,66.94 100.40,66.62 C101.58,66.32 102.71,65.33 103.19,64.23 C103.63,64.32 104.84,63.85 106.25,62.99 C111.78,59.62 116.24,60.60 117.14,65.39 C117.39,66.72 118.98,67.66 122.46,68.54 C127.07,69.71 127.62,69.64 130.16,67.65 C131.66,66.47 132.91,64.88 132.94,64.13 C132.96,63.78 133.07,63.58 133.24,63.50 C133.05,63.73 133.00,64.33 133.00,65.38 C133.00,67.04 133.55,68.00 134.50,68.00 C134.58,68.00 134.65,68.00 134.73,68.01 C133.47,68.36 131.41,70.00 129.08,72.64 C125.21,77.04 125.00,77.15 125.00,74.69 C125.00,72.54 124.35,71.91 121.25,71.05 C115.95,69.58 103.47,69.75 94.77,71.42 C77.62,74.70 52.02,88.00 62.86,88.00 C64.52,88.00 66.16,88.45 66.50,89.00 C66.88,89.62 65.03,90.00 61.63,90.00 C55.94,90.00 53.70,91.22 52.51,94.97 C52.17,96.04 52.36,97.81 52.94,98.90 C53.53,99.98 54.00,101.59 54.00,102.47 C54.00,103.79 53.63,103.87 51.87,102.93 C49.76,101.80 49.75,101.86 50.46,109.46 C50.86,113.67 51.81,118.33 52.58,119.81 C53.36,121.29 53.99,123.23 53.99,124.13 C54.00,126.76 56.55,128.31 58.85,127.08 C60.32,126.30 61.79,126.43 64.61,127.61 C67.12,128.66 69.73,128.98 72.35,128.56 C75.91,127.99 76.17,128.09 74.96,129.55 C73.95,130.76 72.36,131.06 68.56,130.77 C65.78,130.55 62.71,130.01 61.75,129.58 C58.35,128.04 60.04,130.65 63.52,132.31 C67.34,134.13 75.94,135.61 88.40,136.58 C97.21,137.27 97.11,138.96 88.25,138.98 L 83.00 139.00 L 83.00 142.38 C83.00,145.55 83.32,145.87 87.83,147.35 C95.36,149.81 106.72,151.26 112.89,150.54 C125.38,149.09 137.95,143.69 145.59,136.48 C149.26,133.02 149.27,132.97 148.75,126.45 C148.46,122.84 148.02,119.68 147.76,119.43 C147.61,119.27 146.83,119.40 145.79,119.72 C147.14,119.29 148.41,119.00 149.06,119.00 C150.22,119.00 150.78,118.37 150.73,117.14 C150.74,117.17 150.74,117.21 150.74,117.25 C150.83,118.49 151.43,122.58 152.06,126.34 L 153.21 133.19 L 149.86 136.67 C144.39,142.34 135.33,147.81 127.16,150.38 C119.59,152.77 107.31,154.19 101.50,153.36 C95.04,152.44 88.31,150.87 84.25,149.34 C80.19,147.80 80.00,147.54 80.00,143.59 L 80.00 139.46 L 71.91 137.78 C67.46,136.86 62.67,135.30 61.26,134.30 C59.85,133.31 57.54,131.79 56.11,130.93 C52.08,128.47 50.18,124.21 48.39,113.59 C46.06,99.81 47.27,94.53 54.37,87.52 C59.66,82.30 71.96,75.25 81.31,72.08 C85.67,70.60 86.55,69.89 86.82,67.61 C86.85,67.39 86.88,67.18 86.93,66.97 C86.81,68.40 87.76,69.91 89.75,70.67 C92.75,71.83 97.10,71.30 98.18,69.64 ZM 114.10 90.50 C112.11,93.92 108.04,94.95 106.04,92.55 C105.33,91.70 104.14,91.00 103.38,91.00 C100.89,91.00 101.93,89.40 105.53,87.69 C109.10,85.99 116.06,85.36 115.93,86.75 C115.89,87.16 115.07,88.85 114.10,90.50 ZM 136.00 68.91 C136.04,69.02 136.07,69.13 136.08,69.25 C136.12,69.94 136.30,71.28 136.49,72.23 C136.67,73.18 135.96,75.05 134.91,76.39 C133.86,77.72 133.00,79.11 133.00,79.47 C133.00,79.84 131.43,81.62 129.50,83.44 C127.43,85.39 126.04,87.35 125.87,88.34 C125.55,88.49 125.28,88.57 125.08,88.57 C122.12,88.57 122.49,87.49 126.50,84.43 C128.43,82.96 130.00,80.98 130.00,80.03 C130.00,79.08 131.35,76.44 133.00,74.16 C134.65,71.88 136.00,69.56 136.00,69.01 C136.00,68.97 136.00,68.94 136.00,68.91 ZM 109.50 80.14 C106.75,80.49 103.38,81.12 102.00,81.54 C99.54,82.30 99.53,82.28 101.32,80.25 C105.00,76.08 114.50,74.46 114.50,78.00 C114.50,79.05 112.99,79.69 109.50,80.14 ZM 58.95 115.09 C59.67,119.48 60.03,123.30 59.77,123.57 C58.52,124.81 56.89,120.62 56.34,114.76 C55.46,105.29 57.40,105.54 58.95,115.09 ZM 68.00 103.00 C65.78,105.22 64.43,105.51 63.49,103.99 C61.80,101.25 66.25,96.80 68.99,98.49 C70.51,99.43 70.22,100.78 68.00,103.00 ZM 107.61 65.57 C107.20,66.65 107.94,67.00 110.61,67.00 C112.99,67.00 114.03,66.59 113.76,65.77 C113.17,64.00 108.28,63.84 107.61,65.57 ZM 132.35 83.46 C134.95,80.86 137.00,78.47 137.00,78.01 C137.00,78.84 134.85,81.19 132.35,83.46 ZM 108.29 58.72 C110.56,57.23 113.22,55.95 115.45,55.45 C113.21,56.07 110.56,57.31 108.29,58.72 ZM 125.76 57.41 C127.98,58.20 128.93,58.12 128.58,57.48 C129.12,58.26 128.20,58.41 125.76,57.41 ZM 133.92 63.57 C134.82,63.97 136.00,65.40 136.00,66.62 C136.00,65.86 135.32,64.68 134.50,64.00 C134.28,63.81 134.08,63.67 133.92,63.57 Z" fill="rgb(51,16,14)"/>
<path d="M 148.01 108.75 C146.06,111.94 142.97,112.95 140.40,111.23 C136.66,108.74 135.91,100.29 138.99,95.25 C141.44,91.23 146.00,90.73 148.44,94.22 C150.64,97.36 150.42,104.80 148.01,108.75 ZM 141.38 109.57 C143.34,110.95 143.67,110.87 145.75,108.48 C150.35,103.18 147.43,91.09 142.23,93.88 C137.79,96.25 137.23,106.63 141.38,109.57 ZM 123.26 88.19 C123.50,88.46 124.11,88.57 125.08,88.57 C125.28,88.57 125.55,88.49 125.87,88.34 C125.81,88.76 125.96,89.00 126.36,89.00 C126.53,89.00 128.35,87.35 130.63,85.14 C126.07,90.49 123.46,97.93 125.58,100.67 C126.95,102.44 127.05,102.44 128.47,100.60 C129.80,98.88 130.01,98.86 130.58,100.35 C130.93,101.26 132.07,102.00 133.11,102.00 C134.15,102.00 135.00,102.41 135.00,102.91 C135.00,103.40 134.10,103.58 133.01,103.29 C131.58,102.92 130.76,103.43 130.07,105.14 C129.38,106.87 129.11,107.03 129.06,105.75 C129.02,104.69 128.21,104.00 127.00,104.00 C125.90,104.00 124.16,103.16 123.14,102.14 C121.00,100.00 119.82,95.23 121.31,94.73 C122.36,94.38 123.15,91.79 123.13,88.75 C123.13,88.59 123.18,88.40 123.26,88.19 ZM 136.32 79.33 C136.75,78.76 137.00,78.30 137.00,78.01 C137.00,77.53 137.92,76.84 139.05,76.48 C140.44,76.04 140.81,75.45 140.19,74.67 C139.69,74.02 138.98,72.26 138.62,70.75 C138.60,70.68 138.59,70.62 138.57,70.55 C138.64,70.77 138.71,71.01 138.77,71.25 C139.40,73.73 140.36,74.73 142.80,75.46 C144.56,75.98 146.00,76.74 146.00,77.13 C146.00,78.34 142.65,78.69 140.02,77.76 C138.26,77.13 137.42,77.24 137.12,78.15 C137.04,78.39 136.75,78.81 136.32,79.33 Z" fill="rgb(25,54,96)"/>
<path d="M 131.00 105.92 C131.00,115.38 138.77,121.47 145.43,118.02 C143.65,119.15 141.88,120.00 141.27,120.00 C140.57,120.00 140.00,120.46 140.00,121.01 C140.00,121.08 140.02,121.13 140.05,121.17 C134.98,121.34 128.93,118.68 124.50,114.03 C121.81,111.20 121.45,110.05 121.00,102.94 C120.88,101.06 120.85,99.32 120.89,97.92 C121.28,99.42 122.09,101.09 123.14,102.14 C124.16,103.16 125.90,104.00 127.00,104.00 C128.21,104.00 129.02,104.69 129.06,105.75 C129.11,107.03 129.38,106.87 130.07,105.14 C130.47,104.15 130.91,103.56 131.49,103.32 C131.10,103.64 131.00,104.42 131.00,105.92 ZM 141.38 109.57 C137.23,106.63 137.79,96.25 142.23,93.88 C147.43,91.09 150.35,103.18 145.75,108.48 C143.67,110.87 143.34,110.95 141.38,109.57 ZM 104.54 150.52 C109.15,150.63 114.54,150.26 119.09,149.50 C117.03,149.95 114.96,150.30 112.89,150.54 C110.65,150.80 107.72,150.78 104.54,150.52 ZM 132.08 145.22 C137.28,142.69 142.53,139.37 145.59,136.48 C142.00,139.87 137.32,142.85 132.08,145.22 ZM 150.10 115.18 C149.66,115.21 148.86,115.71 147.33,116.74 C148.83,115.58 149.64,115.05 150.10,115.18 ZM 87.83 147.35 C86.98,147.07 86.28,146.84 85.71,146.61 C86.38,146.86 87.21,147.13 88.25,147.46 C89.34,147.80 90.67,148.18 92.06,148.54 C90.57,148.18 89.14,147.78 87.83,147.35 ZM 122.79 92.10 C123.01,91.13 123.14,89.96 123.13,88.75 C123.14,89.98 123.02,91.14 122.79,92.10 Z" fill="rgb(46,90,142)"/>
<path d="M 131.00 105.92 C131.00,105.66 131.00,105.43 131.01,105.22 C131.09,106.63 131.78,107.00 134.00,107.00 C136.81,107.00 137.00,106.75 137.00,103.21 C137.00,100.07 136.64,99.40 134.89,99.27 C131.86,99.04 131.71,98.62 133.35,94.70 C135.72,89.04 139.88,85.00 143.35,85.00 C150.16,85.00 154.98,91.15 154.99,99.87 C155.00,102.74 154.71,103.16 153.00,102.71 C151.40,102.29 150.62,103.08 149.00,106.74 C147.64,109.80 147.31,111.67 147.97,112.46 C149.09,113.81 147.43,116.00 145.30,116.00 C144.59,116.00 144.00,116.42 144.00,116.93 C144.00,117.44 143.21,118.06 142.25,118.31 C140.78,118.69 140.82,118.78 142.50,118.86 C143.27,118.90 144.50,118.50 145.64,117.88 C145.57,117.93 145.50,117.97 145.43,118.02 C138.77,121.47 131.00,115.38 131.00,105.92 ZM 148.01 108.75 C150.42,104.80 150.64,97.36 148.44,94.22 C146.00,90.73 141.44,91.23 138.99,95.25 C135.91,100.29 136.66,108.74 140.40,111.23 C142.97,112.95 146.06,111.94 148.01,108.75 ZM 131.86 83.94 C132.03,83.78 132.19,83.62 132.35,83.46 L 132.36 83.45 C132.14,83.85 132.01,84.30 132.02,84.79 C132.03,86.26 132.17,86.29 133.00,85.00 C133.58,84.10 133.98,83.98 133.98,84.69 C133.99,85.35 133.54,86.16 132.98,86.51 C132.42,86.86 132.21,87.52 132.50,87.99 C133.49,89.61 130.70,93.97 127.86,95.22 C126.30,95.91 125.31,96.59 124.85,97.34 C125.10,93.86 127.37,88.97 130.63,85.14 C131.03,84.76 131.44,84.36 131.86,83.94 ZM 139.13 72.41 C139.00,72.06 138.88,71.68 138.77,71.25 C138.71,71.01 138.64,70.77 138.57,70.55 C138.19,69.13 137.50,68.00 136.98,68.00 C136.81,68.00 136.64,67.94 136.50,67.82 C136.53,67.73 136.55,67.64 136.58,67.55 C137.30,64.69 138.39,64.44 142.29,66.25 C145.12,67.56 145.35,68.24 144.08,71.50 C143.23,73.67 141.00,74.19 139.67,72.53 C139.31,72.07 139.12,72.04 139.13,72.41 ZM 136.32 79.33 C136.75,78.81 137.04,78.39 137.12,78.15 C137.42,77.24 138.26,77.13 140.02,77.76 C141.45,78.26 143.09,78.39 144.29,78.21 C144.20,78.24 144.10,78.26 144.00,78.29 C142.85,78.59 142.00,79.65 142.00,80.79 C142.00,83.21 138.52,84.33 136.93,82.42 C136.18,81.52 134.91,81.51 133.85,82.05 C134.88,81.04 135.75,80.09 136.32,79.33 ZM 135.99 69.09 C135.88,69.76 134.58,71.98 133.00,74.16 C134.16,72.56 135.30,70.59 135.99,69.09 ZM 133.98 63.59 C133.96,63.58 133.94,63.57 133.92,63.57 C133.60,63.36 133.38,63.33 133.24,63.50 C133.07,63.58 132.96,63.78 132.94,64.13 C132.98,63.20 133.20,63.03 133.98,63.59 ZM 145.54 76.63 C144.98,76.25 143.96,75.80 142.80,75.46 C141.84,75.17 141.11,74.84 140.54,74.40 C141.17,74.82 141.98,75.21 142.82,75.46 C144.17,75.86 145.08,76.26 145.54,76.63 ZM 130.52 71.11 C130.04,71.59 129.56,72.10 129.08,72.64 C129.58,72.08 130.05,71.57 130.52,71.11 ZM 126.28 101.53 C126.09,101.32 125.86,101.03 125.58,100.67 C125.57,100.65 125.56,100.64 125.54,100.62 C125.55,100.63 125.56,100.64 125.57,100.65 C125.86,101.02 126.09,101.32 126.28,101.53 Z" fill="rgb(56,147,205)"/>
<path d="M 139.13 72.41 C139.12,72.04 139.31,72.07 139.67,72.53 C141.00,74.19 143.23,73.67 144.08,71.50 C145.35,68.24 145.12,67.56 142.29,66.25 C138.39,64.44 137.30,64.69 136.58,67.55 C136.55,67.64 136.53,67.73 136.50,67.82 C136.20,67.58 136.00,67.13 136.00,66.62 C136.00,65.42 134.87,64.04 133.98,63.59 C133.37,63.15 133.10,63.16 133.00,63.63 C132.91,61.95 129.73,59.41 126.07,57.53 C128.28,58.39 129.09,58.23 128.58,57.48 C128.27,56.90 126.89,55.86 124.44,54.58 C115.71,50.02 103.41,52.81 98.10,60.55 C97.70,61.14 97.32,61.65 96.95,62.08 L 96.96 62.08 C97.70,60.68 97.65,60.04 96.74,59.71 C95.79,59.36 95.84,58.62 97.00,56.48 C100.47,50.04 107.23,47.68 119.50,48.61 C133.70,49.69 141.83,57.06 146.98,73.50 C147.67,75.70 149.34,78.56 150.68,79.85 C152.07,81.18 152.89,82.85 152.57,83.68 C152.26,84.50 152.00,85.66 152.00,86.27 C152.00,86.88 150.75,86.18 149.22,84.71 C146.91,82.50 145.84,82.15 142.81,82.64 C135.43,83.84 128.07,94.62 130.78,100.24 L 131.28 101.29 C130.96,101.02 130.71,100.70 130.58,100.35 C130.01,98.86 129.80,98.88 128.47,100.60 C127.34,102.06 127.05,102.36 126.28,101.53 L 126.28 101.53 C126.09,101.32 125.85,101.02 125.57,100.65 C125.56,100.64 125.55,100.63 125.54,100.62 C124.97,99.84 124.76,98.70 124.85,97.34 C125.31,96.59 126.30,95.91 127.86,95.22 C130.70,93.97 133.49,89.61 132.50,87.99 C132.21,87.52 132.42,86.86 132.98,86.51 C133.54,86.16 133.99,85.35 133.98,84.69 C133.98,83.98 133.58,84.10 133.00,85.00 C132.17,86.29 132.03,86.26 132.02,84.79 C132.01,84.30 132.14,83.85 132.36,83.45 C132.88,82.98 133.38,82.51 133.85,82.05 C134.91,81.51 136.18,81.52 136.93,82.42 C138.52,84.33 142.00,83.21 142.00,80.79 C142.00,79.65 142.85,78.59 144.00,78.29 C144.10,78.26 144.20,78.24 144.29,78.21 C145.30,78.06 146.00,77.68 146.00,77.13 C146.00,77.00 145.83,76.82 145.54,76.63 C145.08,76.26 144.17,75.86 142.82,75.46 C141.98,75.21 141.17,74.82 140.54,74.40 C139.91,73.91 139.47,73.28 139.13,72.41 ZM 150.10 115.18 C149.64,115.05 148.83,115.58 147.33,116.74 C147.08,116.91 146.80,117.10 146.50,117.31 L 146.21 117.50 C146.02,117.63 145.83,117.76 145.64,117.88 C144.50,118.50 143.27,118.90 142.50,118.86 C140.82,118.78 140.78,118.69 142.25,118.31 C143.21,118.06 144.00,117.44 144.00,116.93 C144.00,116.42 144.59,116.00 145.30,116.00 C147.43,116.00 149.09,113.81 147.97,112.46 C147.31,111.67 147.64,109.80 149.00,106.74 C150.62,103.08 151.40,102.29 153.00,102.71 C153.45,102.83 153.80,102.88 154.07,102.86 C153.72,103.43 153.29,103.92 152.75,104.28 C150.98,105.48 150.76,106.08 151.70,107.06 C152.54,107.92 152.60,108.87 151.92,110.14 C150.72,112.38 150.56,116.10 151.42,122.37 C151.07,120.05 150.80,118.05 150.74,117.25 C150.74,117.21 150.74,117.17 150.73,117.14 C150.73,117.09 150.73,117.05 150.73,117.00 C150.65,116.01 150.62,115.41 150.34,115.23 C150.27,115.20 150.19,115.18 150.10,115.18 ZM 132.33 97.71 C132.18,98.89 132.94,99.12 134.89,99.27 C136.64,99.40 137.00,100.07 137.00,103.21 C137.00,106.75 136.81,107.00 134.00,107.00 C131.78,107.00 131.09,106.63 131.01,105.22 C131.04,104.17 131.16,103.58 131.49,103.32 C131.91,103.13 132.40,103.13 133.01,103.29 C134.10,103.58 135.00,103.40 135.00,102.91 C135.00,102.41 134.15,102.00 133.11,102.00 C132.70,102.00 132.27,101.89 131.89,101.69 L 131.93 100.22 C131.95,99.46 132.09,98.61 132.33,97.71 ZM 90.56 68.22 C89.22,66.89 90.22,66.00 93.06,66.00 C94.74,66.00 95.87,66.40 95.57,66.88 C94.88,68.00 91.29,68.96 90.56,68.22 ZM 154.99 99.90 L 154.99 99.87 C154.99,95.02 153.49,90.96 150.99,88.32 C153.91,91.19 155.43,96.13 154.99,99.90 ZM 132.95 63.96 C132.95,64.01 132.95,64.07 132.94,64.13 C132.91,64.88 131.66,66.47 130.16,67.65 C130.06,67.73 129.96,67.81 129.86,67.88 C131.27,66.53 132.68,64.83 132.95,63.96 ZM 141.32 85.42 C140.08,85.91 138.81,86.82 137.61,88.05 C138.77,86.76 140.01,85.88 141.32,85.42 ZM 94.72 63.93 C94.13,64.03 93.92,63.41 94.29,62.00 C93.99,63.16 94.23,63.81 94.72,63.93 Z" fill="rgb(75,135,180)"/>
<path d="M 150.95 117.92 C150.72,114.24 151.04,111.79 151.92,110.14 C152.60,108.87 152.54,107.92 151.70,107.06 C150.76,106.08 150.98,105.48 152.75,104.28 C153.29,103.92 153.72,103.43 154.07,102.86 C154.22,102.84 154.35,102.80 154.45,102.72 C154.10,105.47 153.39,107.99 152.43,109.47 C151.19,111.36 150.71,113.87 150.95,117.92 ZM 132.33 97.71 C132.09,98.61 131.95,99.46 131.93,100.22 C132.02,97.40 133.24,94.22 134.98,91.50 C134.38,92.49 133.83,93.56 133.35,94.70 C132.77,96.10 132.41,97.05 132.33,97.71 ZM 153.97 93.00 C153.46,91.70 152.79,90.47 151.96,89.41 C152.85,90.49 153.55,91.71 153.97,93.00 Z" fill="rgb(113,167,206)"/>
<path d="M 122.27 111.02 C117.68,103.79 118.02,94.83 123.17,88.07 C123.19,88.11 123.22,88.15 123.26,88.19 C123.18,88.40 123.13,88.59 123.13,88.75 C123.14,89.96 123.01,91.13 122.79,92.10 L 122.79 92.10 C122.47,93.52 121.93,94.52 121.31,94.73 C120.54,94.99 120.48,96.36 120.89,97.92 C120.85,99.32 120.88,101.06 121.00,102.94 C121.27,107.27 121.51,109.39 122.27,111.02 ZM 130.00 79.78 C130.00,78.97 131.35,76.44 133.00,74.16 C131.35,76.44 130.00,79.08 130.00,80.03 C130.00,80.93 128.60,82.75 126.82,84.18 C128.65,82.29 130.00,80.45 130.00,79.78 ZM 133.37 119.97 C130.63,118.95 127.94,117.33 125.72,115.22 C128.03,117.34 130.69,118.95 133.37,119.97 Z" fill="rgb(81,40,35)"/>
<path d="M 96.96 62.08 L 96.95 62.08 C96.02,63.21 95.23,63.84 94.72,63.93 C94.23,63.81 93.99,63.16 94.29,62.00 C94.67,60.54 94.26,59.84 93.69,60.07 C94.30,59.38 94.91,58.64 95.51,57.89 C96.43,56.71 97.27,55.68 98.06,54.77 C97.68,55.31 97.33,55.87 97.00,56.48 C95.84,58.62 95.79,59.36 96.74,59.71 C97.65,60.04 97.70,60.68 96.96,62.08 ZM 121.73 48.84 C126.71,49.08 128.44,49.66 131.44,51.41 C132.72,52.16 133.95,53.04 135.13,54.03 C131.44,51.20 127.04,49.53 121.73,48.84 ZM 92.88 60.97 C92.79,61.13 92.71,61.31 92.63,61.52 C92.33,62.31 91.04,63.36 89.71,63.92 C90.50,63.37 91.64,62.31 92.88,60.97 ZM 101.69 51.34 C103.42,50.11 105.24,49.41 107.65,49.04 C105.32,49.52 103.35,50.28 101.69,51.34 ZM 88.63 64.43 C88.29,64.64 88.00,64.88 87.76,65.15 C88.01,64.83 88.31,64.59 88.63,64.43 ZM 86.94 66.90 C86.94,66.93 86.94,66.95 86.93,66.97 C86.88,67.18 86.85,67.39 86.82,67.61 C86.73,68.40 86.56,69.01 86.20,69.52 C86.56,69.00 86.73,68.38 86.83,67.55 C86.85,67.32 86.89,67.11 86.94,66.90 Z" fill="rgb(117,126,150)"/>
<path d="M 68.56 130.77 C71.40,130.99 73.01,130.87 74.06,130.29 C73.13,130.93 71.82,131.57 70.62,131.91 C68.14,132.63 67.96,132.84 69.75,132.91 C70.99,132.96 72.00,133.42 72.00,133.94 C72.00,134.32 72.57,134.65 73.98,134.97 C69.15,134.20 65.62,133.31 63.52,132.31 C60.04,130.65 58.35,128.04 61.75,129.58 C62.71,130.01 65.78,130.55 68.56,130.77 ZM 83.70 136.17 C85.11,136.30 86.67,136.43 88.40,136.57 C92.90,136.93 95.08,137.54 94.94,138.06 C95.07,137.54 92.90,136.93 88.40,136.58 C86.76,136.45 85.20,136.32 83.70,136.17 ZM 75.55 128.73 C75.46,128.92 75.28,129.16 75.03,129.47 C75.02,129.47 75.02,129.48 75.01,129.49 C75.27,129.17 75.46,128.92 75.55,128.73 Z" fill="rgb(121,84,77)"/>
<path d="M 141.32 85.42 C140.01,85.88 138.77,86.76 137.61,88.05 C136.67,89.02 135.78,90.18 134.98,91.50 C133.24,94.22 132.02,97.40 131.93,100.22 L 131.89 101.69 C131.67,101.58 131.46,101.44 131.28,101.29 L 130.78 100.24 C128.07,94.62 135.43,83.84 142.81,82.64 C145.84,82.15 146.91,82.50 149.22,84.71 C150.75,86.18 152.00,86.88 152.00,86.27 C152.00,85.67 152.25,84.54 152.55,83.73 C152.53,83.96 152.49,84.19 152.43,84.43 C152.11,85.72 152.59,88.96 153.51,91.63 C153.60,91.89 153.69,92.16 153.76,92.43 C153.33,91.35 152.72,90.33 151.96,89.41 C151.66,89.02 151.34,88.66 150.99,88.32 C149.00,86.21 146.37,85.00 143.35,85.00 C142.69,85.00 142.01,85.15 141.32,85.42 ZM 154.50 102.69 C154.20,105.39 153.50,107.83 152.46,109.42 C151.30,111.18 150.79,113.43 150.91,116.93 C150.79,113.45 151.29,111.20 152.43,109.47 C153.39,107.99 154.10,105.47 154.45,102.72 C154.47,102.71 154.49,102.70 154.50,102.69 ZM 151.07 80.25 C151.60,80.82 151.98,81.35 152.23,81.88 C151.96,81.35 151.56,80.78 151.07,80.25 Z" fill="rgb(150,214,245)"/>
<path d="M 123.65 71.93 C123.06,71.60 122.22,71.33 121.06,71.02 C118.90,70.43 115.41,70.18 113.31,70.45 C111.22,70.72 107.03,71.16 104.00,71.43 C96.74,72.07 82.47,76.27 74.72,80.03 C63.50,85.49 61.44,86.82 64.06,88.08 C63.67,88.03 63.26,88.00 62.86,88.00 C52.02,88.00 77.62,74.70 94.77,71.42 C103.47,69.75 115.95,69.58 121.25,71.05 C122.31,71.35 123.09,71.62 123.65,71.93 ZM 53.27 103.54 C53.12,103.56 52.95,103.54 52.75,103.46 C51.14,102.84 51.25,116.20 52.88,120.32 C52.98,120.56 53.07,120.81 53.16,121.06 C52.99,120.63 52.79,120.20 52.58,119.81 C51.81,118.33 50.86,113.67 50.46,109.46 C49.75,101.86 49.76,101.80 51.87,102.93 C52.50,103.27 52.95,103.47 53.27,103.54 ZM 135.99 69.09 C135.67,69.79 135.25,70.59 134.78,71.40 C135.26,70.43 135.17,70.00 134.54,70.00 C133.73,70.00 132.59,70.90 132.00,72.00 C131.41,73.10 130.42,74.00 129.79,74.00 C129.17,74.00 127.83,74.74 126.83,75.65 C125.10,77.22 125.00,77.16 125.00,74.69 C125.00,77.15 125.22,77.03 129.08,72.64 C129.58,72.08 130.05,71.57 130.52,71.11 C132.25,69.36 133.74,68.29 134.73,68.01 C135.31,68.09 135.81,68.44 136.00,68.91 C136.00,68.94 136.00,68.97 136.00,69.01 C136.00,69.03 136.00,69.06 135.99,69.09 ZM 53.94 92.23 C53.60,92.68 53.32,93.23 53.04,93.90 C52.61,94.95 52.38,95.80 52.35,96.57 C52.32,95.98 52.37,95.42 52.51,94.97 C52.87,93.84 53.32,92.94 53.94,92.23 ZM 53.91 101.67 C53.76,100.87 53.43,99.87 53.04,99.09 C53.52,100.03 53.81,100.93 53.91,101.67 ZM 55.71 127.14 C56.63,127.60 57.80,127.64 58.85,127.08 C57.76,127.66 56.61,127.62 55.71,127.14 Z" fill="rgb(226,186,163)"/>
<path d="M 75.55 128.73 C75.86,128.08 75.07,128.12 72.35,128.56 C69.73,128.98 67.12,128.66 64.61,127.61 C61.79,126.43 60.32,126.30 58.85,127.08 C57.76,127.66 56.61,127.62 55.71,127.14 C54.71,126.60 54.00,125.52 53.99,124.13 C53.99,123.47 53.65,122.25 53.16,121.06 C53.07,120.81 52.98,120.56 52.88,120.32 C51.25,116.20 51.14,102.84 52.75,103.46 C52.95,103.54 53.12,103.56 53.27,103.54 C53.85,103.66 54.00,103.32 54.00,102.47 C54.00,102.24 53.97,101.97 53.91,101.67 C53.81,100.93 53.52,100.03 53.04,99.09 C53.01,99.02 52.98,98.96 52.94,98.90 C52.61,98.26 52.40,97.40 52.35,96.57 C52.38,95.80 52.61,94.95 53.04,93.90 C53.32,93.23 53.60,92.68 53.94,92.23 C55.37,90.59 57.66,90.00 61.63,90.00 C65.03,90.00 66.88,89.62 66.50,89.00 C67.00,89.12 67.56,89.24 68.17,89.37 C68.53,89.44 70.21,90.52 71.90,91.77 C75.75,94.62 78.33,99.50 77.70,102.77 C77.44,104.15 77.62,110.24 78.11,116.31 C78.82,125.08 78.72,127.78 77.64,129.43 C75.77,132.29 76.94,135.00 80.00,135.78 C77.82,135.53 75.80,135.26 73.98,134.97 C72.57,134.65 72.00,134.32 72.00,133.94 C72.00,133.42 70.99,132.96 69.75,132.91 C67.96,132.84 68.14,132.63 70.62,131.91 C71.82,131.57 73.13,130.93 74.06,130.29 C74.42,130.10 74.71,129.85 74.96,129.55 C74.98,129.53 74.99,129.51 75.01,129.49 C75.02,129.48 75.02,129.47 75.03,129.47 C75.28,129.16 75.46,128.92 75.55,128.73 ZM 58.95 115.09 C57.40,105.54 55.46,105.29 56.34,114.76 C56.89,120.62 58.52,124.81 59.77,123.57 C60.03,123.30 59.67,119.48 58.95,115.09 ZM 68.00 103.00 C70.22,100.78 70.51,99.43 68.99,98.49 C66.25,96.80 61.80,101.25 63.49,103.99 C64.43,105.51 65.78,105.22 68.00,103.00 ZM 93.04 138.73 C92.25,138.89 91.34,138.99 90.50,139.00 C85.98,139.05 84.68,140.26 85.44,143.73 C85.85,145.60 86.94,146.83 89.61,147.87 C89.13,147.73 88.67,147.59 88.25,147.46 C87.21,147.13 86.38,146.86 85.71,146.61 L 85.71 146.61 C83.21,145.65 83.00,144.95 83.00,142.38 L 83.00 139.00 L 88.25 138.98 C90.33,138.98 91.93,138.88 93.04,138.73 ZM 147.76 119.43 C147.93,119.60 148.18,121.02 148.41,123.00 C146.92,122.93 142.88,122.11 138.97,121.17 C139.33,121.18 139.69,121.19 140.05,121.17 C140.32,121.55 141.73,121.31 143.62,120.51 C144.31,120.22 145.06,119.95 145.79,119.72 C146.83,119.40 147.61,119.27 147.76,119.43 ZM 107.61 65.57 C108.28,63.84 113.17,64.00 113.76,65.77 C114.03,66.59 112.99,67.00 110.61,67.00 C107.94,67.00 107.20,66.65 107.61,65.57 ZM 83.70 136.17 C83.15,136.12 82.61,136.06 82.08,136.01 C88.54,136.05 95.55,137.16 94.95,138.02 C94.94,137.51 92.77,136.92 88.40,136.57 C86.67,136.43 85.11,136.30 83.70,136.17 ZM 123.16 88.03 C123.16,88.04 123.17,88.06 123.17,88.07 C119.38,93.04 118.20,99.20 119.66,104.98 C119.23,103.50 119.00,102.03 119.01,100.63 C119.01,95.68 120.34,91.61 123.16,88.03 ZM 145.54 136.53 C148.22,133.99 148.86,132.95 148.98,129.74 C149.11,133.14 148.50,133.73 145.59,136.48 C145.57,136.50 145.56,136.51 145.54,136.53 ZM 63.18 87.46 C62.33,86.29 65.29,84.62 74.72,80.03 C66.21,84.17 62.70,86.16 63.18,87.46 ZM 126.48 115.91 C127.90,117.13 129.47,118.16 131.10,118.98 C130.77,118.86 130.50,118.75 130.32,118.65 C128.98,117.95 127.68,117.01 126.48,115.91 ZM 132.08 145.22 C132.06,145.23 132.04,145.24 132.01,145.25 C132.87,144.84 133.72,144.40 134.57,143.95 C133.75,144.39 132.91,144.82 132.08,145.22 ZM 119.10 149.50 L 119.09 149.50 C117.00,149.85 114.74,150.12 112.46,150.29 C114.74,150.12 117.01,149.85 119.10,149.50 Z" fill="rgb(172,107,90)"/>
<path d="M 93.04 138.73 C94.25,138.56 94.88,138.32 94.94,138.06 C94.95,138.05 94.95,138.03 94.95,138.02 C95.55,137.16 88.54,136.05 82.08,136.01 C81.37,135.94 80.68,135.86 80.00,135.78 C76.94,135.00 75.77,132.29 77.64,129.43 C78.72,127.78 78.82,125.08 78.11,116.31 C77.62,110.24 77.44,104.15 77.70,102.77 C77.80,102.24 77.82,101.68 77.77,101.08 C79.40,108.88 80.08,123.53 78.62,127.67 C77.60,130.55 77.53,131.70 78.35,131.79 C78.98,131.86 81.89,132.41 84.82,133.02 C87.74,133.62 95.51,133.98 102.07,133.81 C108.63,133.64 114.00,133.80 114.00,134.17 C114.00,135.77 104.98,142.47 99.16,145.19 C95.68,146.83 93.05,148.38 93.32,148.65 C93.41,148.75 93.78,148.88 94.33,149.05 C93.56,148.89 92.80,148.72 92.06,148.54 C91.21,148.32 90.38,148.09 89.61,147.87 C86.94,146.83 85.85,145.60 85.44,143.73 C84.68,140.26 85.98,139.05 90.50,139.00 C91.34,138.99 92.25,138.89 93.04,138.73 ZM 145.54 136.53 C142.97,138.94 138.88,141.65 134.57,143.95 L 134.57 143.95 C133.72,144.40 132.87,144.84 132.01,145.25 C131.93,145.29 131.85,145.32 131.77,145.36 C132.25,145.04 132.52,144.75 132.53,144.50 C132.54,143.95 133.75,141.70 135.21,139.50 C138.18,135.01 141.47,124.66 140.62,122.45 C140.42,121.93 139.85,121.47 139.16,121.21 C143.01,122.13 146.94,122.93 148.41,123.00 C148.53,124.03 148.65,125.21 148.75,126.45 C148.86,127.79 148.94,128.86 148.98,129.74 C148.86,132.95 148.22,133.99 145.54,136.53 ZM 114.22 150.14 C117.68,149.70 121.58,148.88 124.88,147.96 C122.99,148.56 121.05,149.08 119.10,149.50 C117.55,149.76 115.90,149.97 114.22,150.14 ZM 136.90 120.94 C134.95,120.74 132.88,120.01 130.87,118.89 C130.94,118.92 131.02,118.95 131.10,118.98 C131.85,119.35 132.61,119.68 133.37,119.97 C134.55,120.41 135.74,120.74 136.90,120.94 ZM 71.80 91.70 C70.15,90.48 68.53,89.44 68.17,89.37 C68.99,89.53 70.37,90.47 71.80,91.70 ZM 119.04 99.31 C119.10,96.67 119.71,94.10 120.88,91.69 C119.79,94.00 119.19,96.51 119.04,99.31 ZM 77.04 98.30 C76.67,97.40 76.18,96.50 75.58,95.62 C75.98,96.15 76.31,96.64 76.54,97.08 C76.71,97.41 76.88,97.82 77.04,98.30 ZM 104.54 150.52 C104.37,150.51 104.19,150.49 104.01,150.48 C105.11,150.52 106.28,150.54 107.43,150.53 C106.45,150.55 105.48,150.55 104.54,150.52 Z" fill="rgb(199,108,84)"/>
<path d="M 122.27 111.02 C122.75,112.07 123.45,112.92 124.50,114.03 C124.89,114.44 125.30,114.84 125.72,115.22 C125.96,115.45 126.22,115.68 126.48,115.91 C127.68,117.01 128.98,117.95 130.32,118.65 C130.46,118.72 130.64,118.80 130.87,118.89 C132.88,120.01 134.95,120.74 136.90,120.94 C137.60,121.06 138.29,121.14 138.97,121.17 C139.03,121.18 139.09,121.20 139.16,121.21 C139.85,121.47 140.42,121.93 140.62,122.45 C141.47,124.66 138.18,135.01 135.21,139.50 C133.75,141.70 132.54,143.95 132.53,144.50 C132.52,144.75 132.25,145.04 131.77,145.36 C129.56,146.34 127.25,147.22 124.88,147.96 C121.58,148.88 117.68,149.70 114.22,150.14 C113.64,150.19 113.05,150.25 112.46,150.29 C112.30,150.30 112.15,150.32 112.00,150.33 C110.46,150.44 108.93,150.51 107.43,150.53 C106.28,150.54 105.11,150.52 104.01,150.48 C100.87,150.20 97.50,149.71 94.33,149.05 C93.78,148.88 93.41,148.75 93.32,148.65 C93.05,148.38 95.68,146.83 99.16,145.19 C104.98,142.47 114.00,135.77 114.00,134.17 C114.00,133.80 108.63,133.64 102.07,133.81 C95.51,133.98 87.74,133.62 84.82,133.02 C81.89,132.41 78.98,131.86 78.35,131.79 C77.53,131.70 77.60,130.55 78.62,127.67 C80.08,123.53 79.40,108.88 77.77,101.08 C77.68,100.20 77.43,99.25 77.04,98.30 C76.88,97.82 76.71,97.41 76.54,97.08 C76.31,96.64 75.98,96.15 75.58,95.62 C74.60,94.18 73.34,92.83 71.90,91.77 C71.87,91.74 71.83,91.72 71.80,91.70 C70.37,90.47 68.99,89.53 68.17,89.37 C67.56,89.24 67.00,89.12 66.50,89.00 C66.50,89.00 66.50,89.00 66.50,89.00 C66.24,88.58 65.25,88.23 64.06,88.08 C63.64,87.88 63.34,87.68 63.18,87.46 C62.70,86.16 66.21,84.17 74.72,80.03 C82.47,76.27 96.74,72.07 104.00,71.43 C107.03,71.16 111.22,70.72 113.31,70.45 C115.41,70.18 118.90,70.43 121.06,71.02 C122.22,71.33 123.06,71.60 123.65,71.93 C124.68,72.50 124.98,73.22 125.00,74.54 C125.00,74.56 125.00,74.59 125.00,74.61 C125.00,74.64 125.00,74.66 125.00,74.69 L 125.00 74.69 C125.00,77.16 125.10,77.22 126.83,75.65 C127.83,74.74 129.17,74.00 129.79,74.00 C130.42,74.00 131.41,73.10 132.00,72.00 C132.59,70.90 133.73,70.00 134.54,70.00 C135.17,70.00 135.26,70.43 134.78,71.40 C134.23,72.34 133.62,73.30 133.00,74.16 C131.35,76.44 130.00,78.97 130.00,79.78 C130.00,80.45 128.65,82.29 126.82,84.18 C126.71,84.27 126.61,84.35 126.50,84.43 C124.05,86.30 122.96,87.43 123.16,88.03 C122.24,89.19 121.48,90.41 120.88,91.69 C119.71,94.10 119.10,96.67 119.04,99.31 C119.02,99.74 119.01,100.18 119.01,100.63 C119.00,102.03 119.23,103.50 119.66,104.98 C120.18,107.07 121.05,109.10 122.27,111.02 ZM 114.10 90.50 C115.07,88.85 115.89,87.16 115.93,86.75 C116.06,85.36 109.10,85.99 105.53,87.69 C101.93,89.40 100.89,91.00 103.38,91.00 C104.14,91.00 105.33,91.70 106.04,92.55 C108.04,94.95 112.11,93.92 114.10,90.50 ZM 109.50 80.14 C112.99,79.69 114.50,79.05 114.50,78.00 C114.50,74.46 105.00,76.08 101.32,80.25 C99.53,82.28 99.54,82.30 102.00,81.54 C103.38,81.12 106.75,80.49 109.50,80.14 ZM 134.54 144.04 L 134.49 144.07 C134.53,143.97 134.55,143.96 134.56,143.95 C134.56,143.96 134.56,143.96 134.54,144.04 Z" fill="rgb(231,142,92)"/>
<path d="M 0.00 100.00 L 0.00 0.00 L 100.00 0.00 L 200.00 0.00 L 200.00 100.00 L 200.00 200.00 L 100.00 200.00 L 0.00 200.00 L 0.00 100.00 ZM 127.16 150.38 C135.33,147.81 144.39,142.34 149.86,136.67 L 153.21 133.19 L 151.96 125.84 C150.40,116.66 150.53,112.36 152.46,109.42 C154.92,105.66 155.43,97.21 153.51,91.63 C152.59,88.96 152.11,85.72 152.43,84.43 C152.85,82.76 152.33,81.44 150.62,79.80 C149.31,78.53 147.67,75.70 146.98,73.50 C143.73,63.11 138.34,55.46 131.44,51.41 C127.62,49.17 125.86,48.85 116.80,48.70 C104.33,48.50 102.14,49.44 95.51,57.89 C92.95,61.14 90.03,64.02 89.01,64.29 C87.89,64.58 87.03,65.87 86.83,67.55 C86.55,69.90 85.71,70.59 81.31,72.08 C71.96,75.25 59.66,82.30 54.37,87.52 C47.27,94.53 46.06,99.81 48.39,113.59 C50.18,124.21 52.08,128.47 56.11,130.93 C57.54,131.79 59.85,133.31 61.26,134.30 C62.67,135.30 67.46,136.86 71.91,137.78 L 80.00 139.46 L 80.00 143.59 C80.00,147.54 80.19,147.80 84.25,149.34 C88.31,150.87 95.04,152.44 101.50,153.36 C107.31,154.19 119.59,152.77 127.16,150.38 ZM 122.00 68.54 C118.92,67.71 117.39,66.73 117.14,65.42 C116.24,60.60 111.79,59.61 106.25,62.99 C104.46,64.08 103.00,64.54 103.00,64.02 C103.00,61.17 113.24,55.04 118.00,55.04 C123.11,55.04 133.00,60.75 133.00,63.70 C133.00,65.02 128.08,70.05 127.00,69.84 C126.72,69.78 124.47,69.20 122.00,68.54 Z" fill="rgb(254,254,254)"/>
</g>
</svg>